<svg id="visual" viewBox="0 0 1920 1080" width="1920" height="1080" xmlns="http://www.w3.org/2000/svg" xmlns:xlink="http://www.w3.org/1999/xlink" version="1.1"><rect x="0" y="0" width="1920" height="1080" fill="#001220"></rect><defs><linearGradient id="grad1_0" x1="43.8%" y1="0%" x2="100%" y2="100%"><stop offset="14.444444444444446%" stop-color="#fbae3c" stop-opacity="1"></stop><stop offset="85.55555555555554%" stop-color="#fbae3c" stop-opacity="1"></stop></linearGradient></defs><defs><linearGradient id="grad1_1" x1="43.8%" y1="0%" x2="100%" y2="100%"><stop offset="14.444444444444446%" stop-color="#fbae3c" stop-opacity="1"></stop><stop offset="85.55555555555554%" stop-color="#f48350" stop-opacity="1"></stop></linearGradient></defs><defs><linearGradient id="grad1_2" x1="43.8%" y1="0%" x2="100%" y2="100%"><stop offset="14.444444444444446%" stop-color="#d96162" stop-opacity="1"></stop><stop offset="85.55555555555554%" stop-color="#f48350" stop-opacity="1"></stop></linearGradient></defs><defs><linearGradient id="grad1_3" x1="43.8%" y1="0%" x2="100%" y2="100%"><stop offset="14.444444444444446%" stop-color="#d96162" stop-opacity="1"></stop><stop offset="85.55555555555554%" stop-color="#af4b6d" stop-opacity="1"></stop></linearGradient></defs><defs><linearGradient id="grad1_4" x1="43.8%" y1="0%" x2="100%" y2="100%"><stop offset="14.444444444444446%" stop-color="#7c3e6b" stop-opacity="1"></stop><stop offset="85.55555555555554%" stop-color="#af4b6d" stop-opacity="1"></stop></linearGradient></defs><defs><linearGradient id="grad1_5" x1="43.8%" y1="0%" x2="100%" y2="100%"><stop offset="14.444444444444446%" stop-color="#7c3e6b" stop-opacity="1"></stop><stop offset="85.55555555555554%" stop-color="#49335c" stop-opacity="1"></stop></linearGradient></defs><defs><linearGradient id="grad1_6" x1="43.8%" y1="0%" x2="100%" y2="100%"><stop offset="14.444444444444446%" stop-color="#1d2540" stop-opacity="1"></stop><stop offset="85.55555555555554%" stop-color="#49335c" stop-opacity="1"></stop></linearGradient></defs><defs><linearGradient id="grad1_7" x1="43.8%" y1="0%" x2="100%" y2="100%"><stop offset="14.444444444444446%" stop-color="#1d2540" stop-opacity="1"></stop><stop offset="85.55555555555554%" stop-color="#001220" stop-opacity="1"></stop></linearGradient></defs><defs><linearGradient id="grad2_0" x1="0%" y1="0%" x2="56.3%" y2="100%"><stop offset="14.444444444444446%" stop-color="#fbae3c" stop-opacity="1"></stop><stop offset="85.55555555555554%" stop-color="#fbae3c" stop-opacity="1"></stop></linearGradient></defs><defs><linearGradient id="grad2_1" x1="0%" y1="0%" x2="56.3%" y2="100%"><stop offset="14.444444444444446%" stop-color="#f48350" stop-opacity="1"></stop><stop offset="85.55555555555554%" stop-color="#fbae3c" stop-opacity="1"></stop></linearGradient></defs><defs><linearGradient id="grad2_2" x1="0%" y1="0%" x2="56.3%" y2="100%"><stop offset="14.444444444444446%" stop-color="#f48350" stop-opacity="1"></stop><stop offset="85.55555555555554%" stop-color="#d96162" stop-opacity="1"></stop></linearGradient></defs><defs><linearGradient id="grad2_3" x1="0%" y1="0%" x2="56.3%" y2="100%"><stop offset="14.444444444444446%" stop-color="#af4b6d" stop-opacity="1"></stop><stop offset="85.55555555555554%" stop-color="#d96162" stop-opacity="1"></stop></linearGradient></defs><defs><linearGradient id="grad2_4" x1="0%" y1="0%" x2="56.3%" y2="100%"><stop offset="14.444444444444446%" stop-color="#af4b6d" stop-opacity="1"></stop><stop offset="85.55555555555554%" stop-color="#7c3e6b" stop-opacity="1"></stop></linearGradient></defs><defs><linearGradient id="grad2_5" x1="0%" y1="0%" x2="56.3%" y2="100%"><stop offset="14.444444444444446%" stop-color="#49335c" stop-opacity="1"></stop><stop offset="85.55555555555554%" stop-color="#7c3e6b" stop-opacity="1"></stop></linearGradient></defs><defs><linearGradient id="grad2_6" x1="0%" y1="0%" x2="56.3%" y2="100%"><stop offset="14.444444444444446%" stop-color="#49335c" stop-opacity="1"></stop><stop offset="85.55555555555554%" stop-color="#1d2540" stop-opacity="1"></stop></linearGradient></defs><defs><linearGradient id="grad2_7" x1="0%" y1="0%" x2="56.3%" y2="100%"><stop offset="14.444444444444446%" stop-color="#001220" stop-opacity="1"></stop><stop offset="85.55555555555554%" stop-color="#1d2540" stop-opacity="1"></stop></linearGradient></defs><g transform="translate(1920, 0)"><path d="M0 972C-189.1 957.6 -378.2 943.2 -486 841.8C-593.8 740.3 -620.2 551.8 -687.6 397C-755.1 242.2 -863.5 121.1 -972 0L0 0Z" fill="#0c1c30"></path><path d="M0 850.5C-165.5 837.9 -331 825.3 -425.2 736.6C-519.5 647.8 -542.7 482.8 -601.7 347.4C-660.7 211.9 -755.6 106 -850.5 0L0 0Z" fill="#312c4f"></path><path d="M0 729C-141.8 718.2 -283.7 707.4 -364.5 631.3C-445.3 555.2 -465.1 413.9 -515.7 297.8C-566.3 181.6 -647.6 90.8 -729 0L0 0Z" fill="#623965"></path><path d="M0 607.5C-118.2 598.5 -236.4 589.5 -303.7 526.1C-371.1 462.7 -387.6 344.9 -429.8 248.1C-471.9 151.4 -539.7 75.7 -607.5 0L0 0Z" fill="#96446e"></path><path d="M0 486C-94.6 478.8 -189.1 471.6 -243 420.9C-296.9 370.2 -310.1 275.9 -343.8 198.5C-377.5 121.1 -431.8 60.5 -486 0L0 0Z" fill="#c55469"></path><path d="M0 364.5C-70.9 359.1 -141.8 353.7 -182.2 315.7C-222.7 277.6 -232.6 206.9 -257.9 148.9C-283.1 90.8 -323.8 45.4 -364.5 0L0 0Z" fill="#e9705a"></path><path d="M0 243C-47.3 239.4 -94.6 235.8 -121.5 210.4C-148.4 185.1 -155 138 -171.9 99.3C-188.8 60.5 -215.9 30.3 -243 0L0 0Z" fill="#fa9845"></path><path d="M0 121.5C-23.6 119.7 -47.3 117.9 -60.7 105.2C-74.2 92.5 -77.5 69 -86 49.6C-94.4 30.3 -107.9 15.1 -121.5 0L0 0Z" fill="#fbae3c"></path></g><g transform="translate(0, 1080)"><path d="M0 -972C169.6 -946.3 339.2 -920.7 486 -841.8C632.8 -762.9 756.8 -630.7 834 -481.5C911.2 -332.3 941.6 -166.2 972 0L0 0Z" fill="#0c1c30"></path><path d="M0 -850.5C148.4 -828.1 296.8 -805.6 425.2 -736.6C553.7 -667.5 662.2 -551.8 729.7 -421.3C797.3 -290.8 823.9 -145.4 850.5 0L0 0Z" fill="#312c4f"></path><path d="M0 -729C127.2 -709.8 254.4 -690.5 364.5 -631.3C474.6 -572.1 567.6 -473 625.5 -361.1C683.4 -249.2 706.2 -124.6 729 0L0 0Z" fill="#623965"></path><path d="M0 -607.5C106 -591.5 212 -575.4 303.7 -526.1C395.5 -476.8 473 -394.2 521.2 -300.9C569.5 -207.7 588.5 -103.9 607.5 0L0 0Z" fill="#96446e"></path><path d="M0 -486C84.8 -473.2 169.6 -460.3 243 -420.9C316.4 -381.4 378.4 -315.3 417 -240.8C455.6 -166.2 470.8 -83.1 486 0L0 0Z" fill="#c55469"></path><path d="M0 -364.5C63.6 -354.9 127.2 -345.3 182.2 -315.7C237.3 -286.1 283.8 -236.5 312.7 -180.6C341.7 -124.6 353.1 -62.3 364.5 0L0 0Z" fill="#e9705a"></path><path d="M0 -243C42.4 -236.6 84.8 -230.2 121.5 -210.4C158.2 -190.7 189.2 -157.7 208.5 -120.4C227.8 -83.1 235.4 -41.5 243 0L0 0Z" fill="#fa9845"></path><path d="M0 -121.5C21.2 -118.3 42.4 -115.1 60.7 -105.2C79.1 -95.4 94.6 -78.8 104.2 -60.2C113.9 -41.5 117.7 -20.8 121.5 0L0 0Z" fill="#fbae3c"></path></g></svg>